<mxfile host="app.diagrams.net" agent="Mozilla/5.0 (Windows NT 10.0; Win64; x64) AppleWebKit/537.36 (KHTML, like Gecko) Chrome/128.0.0.0 Safari/537.36" version="24.7.12">
  <diagram name="Page-1" id="6k4Oa61oBmGH2s8LQzbt">
    <mxGraphModel dx="1257" dy="620" grid="1" gridSize="10" guides="1" tooltips="1" connect="1" arrows="1" fold="1" page="1" pageScale="1" pageWidth="850" pageHeight="1100" math="0" shadow="0">
      <root>
        <mxCell id="0" />
        <mxCell id="1" parent="0" />
        <mxCell id="Pg6jRk8zrWQnkmjUrmGD-24" value="" style="rounded=1;whiteSpace=wrap;html=1;strokeWidth=2;fontSize=16;" vertex="1" parent="1">
          <mxGeometry x="40" y="560" width="720" height="240" as="geometry" />
        </mxCell>
        <mxCell id="Pg6jRk8zrWQnkmjUrmGD-10" value="" style="rounded=1;whiteSpace=wrap;html=1;strokeWidth=2;fontSize=16;" vertex="1" parent="1">
          <mxGeometry x="40" y="80" width="720" height="360" as="geometry" />
        </mxCell>
        <mxCell id="Pg6jRk8zrWQnkmjUrmGD-13" style="edgeStyle=orthogonalEdgeStyle;rounded=0;orthogonalLoop=1;jettySize=auto;html=1;exitX=0.5;exitY=1;exitDx=0;exitDy=0;exitPerimeter=0;entryX=0.5;entryY=0;entryDx=0;entryDy=0;strokeWidth=2;fontSize=16;" edge="1" parent="1" source="Pg6jRk8zrWQnkmjUrmGD-1" target="Pg6jRk8zrWQnkmjUrmGD-4">
          <mxGeometry relative="1" as="geometry" />
        </mxCell>
        <mxCell id="Pg6jRk8zrWQnkmjUrmGD-1" value="&lt;b style=&quot;font-size: 16px;&quot;&gt;Local Cancer&amp;nbsp;&lt;/b&gt;&lt;div style=&quot;font-size: 16px;&quot;&gt;&lt;b style=&quot;font-size: 16px;&quot;&gt;Image Dataset&lt;/b&gt;&lt;/div&gt;" style="shape=cylinder3;whiteSpace=wrap;html=1;boundedLbl=1;backgroundOutline=1;size=10;strokeWidth=2;fontSize=16;" vertex="1" parent="1">
          <mxGeometry x="80" y="150" width="160" height="90" as="geometry" />
        </mxCell>
        <mxCell id="Pg6jRk8zrWQnkmjUrmGD-14" style="edgeStyle=orthogonalEdgeStyle;rounded=0;orthogonalLoop=1;jettySize=auto;html=1;exitX=0.5;exitY=1;exitDx=0;exitDy=0;exitPerimeter=0;strokeWidth=2;fontSize=16;" edge="1" parent="1" source="Pg6jRk8zrWQnkmjUrmGD-2" target="Pg6jRk8zrWQnkmjUrmGD-5">
          <mxGeometry relative="1" as="geometry" />
        </mxCell>
        <mxCell id="Pg6jRk8zrWQnkmjUrmGD-2" value="&lt;b style=&quot;font-size: 16px;&quot;&gt;Local Cancer&amp;nbsp;&lt;/b&gt;&lt;div style=&quot;font-size: 16px;&quot;&gt;&lt;b style=&quot;font-size: 16px;&quot;&gt;Image Dataset&lt;/b&gt;&lt;/div&gt;" style="shape=cylinder3;whiteSpace=wrap;html=1;boundedLbl=1;backgroundOutline=1;size=10;strokeWidth=2;fontSize=16;" vertex="1" parent="1">
          <mxGeometry x="320" y="150" width="160" height="90" as="geometry" />
        </mxCell>
        <mxCell id="Pg6jRk8zrWQnkmjUrmGD-15" style="edgeStyle=orthogonalEdgeStyle;rounded=0;orthogonalLoop=1;jettySize=auto;html=1;exitX=0.5;exitY=1;exitDx=0;exitDy=0;exitPerimeter=0;entryX=0.5;entryY=0;entryDx=0;entryDy=0;strokeWidth=2;fontSize=16;" edge="1" parent="1" source="Pg6jRk8zrWQnkmjUrmGD-3" target="Pg6jRk8zrWQnkmjUrmGD-6">
          <mxGeometry relative="1" as="geometry" />
        </mxCell>
        <mxCell id="Pg6jRk8zrWQnkmjUrmGD-3" value="&lt;b style=&quot;font-size: 16px;&quot;&gt;Local Cancer&amp;nbsp;&lt;/b&gt;&lt;div style=&quot;font-size: 16px;&quot;&gt;&lt;b style=&quot;font-size: 16px;&quot;&gt;Image Dataset&lt;/b&gt;&lt;/div&gt;" style="shape=cylinder3;whiteSpace=wrap;html=1;boundedLbl=1;backgroundOutline=1;size=10;strokeWidth=2;fontSize=16;" vertex="1" parent="1">
          <mxGeometry x="560" y="150" width="160" height="90" as="geometry" />
        </mxCell>
        <mxCell id="Pg6jRk8zrWQnkmjUrmGD-21" style="edgeStyle=orthogonalEdgeStyle;rounded=0;orthogonalLoop=1;jettySize=auto;html=1;exitX=0.5;exitY=1;exitDx=0;exitDy=0;entryX=0.5;entryY=0;entryDx=0;entryDy=0;strokeWidth=2;fontSize=16;" edge="1" parent="1" source="Pg6jRk8zrWQnkmjUrmGD-4" target="Pg6jRk8zrWQnkmjUrmGD-7">
          <mxGeometry relative="1" as="geometry" />
        </mxCell>
        <mxCell id="Pg6jRk8zrWQnkmjUrmGD-4" value="&lt;b style=&quot;font-size: 16px;&quot;&gt;Local Model Training&lt;/b&gt;" style="rounded=1;whiteSpace=wrap;html=1;strokeWidth=2;fontSize=16;" vertex="1" parent="1">
          <mxGeometry x="80" y="280" width="160" height="40" as="geometry" />
        </mxCell>
        <mxCell id="Pg6jRk8zrWQnkmjUrmGD-18" style="edgeStyle=orthogonalEdgeStyle;rounded=0;orthogonalLoop=1;jettySize=auto;html=1;exitX=0.5;exitY=1;exitDx=0;exitDy=0;entryX=0.5;entryY=0;entryDx=0;entryDy=0;strokeWidth=2;fontSize=16;" edge="1" parent="1" source="Pg6jRk8zrWQnkmjUrmGD-5" target="Pg6jRk8zrWQnkmjUrmGD-8">
          <mxGeometry relative="1" as="geometry" />
        </mxCell>
        <mxCell id="Pg6jRk8zrWQnkmjUrmGD-5" value="&lt;b style=&quot;font-size: 16px;&quot;&gt;Local Model Training&lt;/b&gt;" style="rounded=1;whiteSpace=wrap;html=1;strokeWidth=2;fontSize=16;" vertex="1" parent="1">
          <mxGeometry x="320" y="280" width="160" height="40" as="geometry" />
        </mxCell>
        <mxCell id="Pg6jRk8zrWQnkmjUrmGD-16" style="edgeStyle=orthogonalEdgeStyle;rounded=0;orthogonalLoop=1;jettySize=auto;html=1;exitX=0.5;exitY=1;exitDx=0;exitDy=0;entryX=0.5;entryY=0;entryDx=0;entryDy=0;strokeWidth=2;fontSize=16;" edge="1" parent="1" source="Pg6jRk8zrWQnkmjUrmGD-6" target="Pg6jRk8zrWQnkmjUrmGD-9">
          <mxGeometry relative="1" as="geometry" />
        </mxCell>
        <mxCell id="Pg6jRk8zrWQnkmjUrmGD-6" value="&lt;b style=&quot;font-size: 16px;&quot;&gt;Local Model Training&lt;/b&gt;" style="rounded=1;whiteSpace=wrap;html=1;strokeWidth=2;fontSize=16;" vertex="1" parent="1">
          <mxGeometry x="560" y="280" width="160" height="40" as="geometry" />
        </mxCell>
        <mxCell id="Pg6jRk8zrWQnkmjUrmGD-7" value="&lt;b style=&quot;font-size: 16px;&quot;&gt;Model Updates&lt;/b&gt;" style="rounded=1;whiteSpace=wrap;html=1;strokeWidth=2;fontSize=16;" vertex="1" parent="1">
          <mxGeometry x="80" y="360" width="160" height="40" as="geometry" />
        </mxCell>
        <mxCell id="Pg6jRk8zrWQnkmjUrmGD-19" style="edgeStyle=orthogonalEdgeStyle;rounded=0;orthogonalLoop=1;jettySize=auto;html=1;exitX=0.5;exitY=1;exitDx=0;exitDy=0;entryX=0.5;entryY=0;entryDx=0;entryDy=0;strokeWidth=2;fontSize=16;" edge="1" parent="1" source="Pg6jRk8zrWQnkmjUrmGD-8" target="Pg6jRk8zrWQnkmjUrmGD-12">
          <mxGeometry relative="1" as="geometry" />
        </mxCell>
        <mxCell id="Pg6jRk8zrWQnkmjUrmGD-8" value="&lt;b style=&quot;font-size: 16px;&quot;&gt;Model Updates&lt;/b&gt;" style="rounded=1;whiteSpace=wrap;html=1;strokeWidth=2;fontSize=16;" vertex="1" parent="1">
          <mxGeometry x="320" y="360" width="160" height="40" as="geometry" />
        </mxCell>
        <mxCell id="Pg6jRk8zrWQnkmjUrmGD-9" value="&lt;b style=&quot;font-size: 16px;&quot;&gt;Model Updates&lt;/b&gt;" style="rounded=1;whiteSpace=wrap;html=1;strokeWidth=2;fontSize=16;" vertex="1" parent="1">
          <mxGeometry x="560" y="360" width="160" height="40" as="geometry" />
        </mxCell>
        <mxCell id="Pg6jRk8zrWQnkmjUrmGD-11" value="&lt;b style=&quot;font-size: 16px;&quot;&gt;Local Devices (Hospitals, Clinics, Labs, etc.)&lt;/b&gt;" style="text;html=1;align=center;verticalAlign=middle;resizable=0;points=[];autosize=1;strokeColor=none;fillColor=none;strokeWidth=2;fontSize=16;" vertex="1" parent="1">
          <mxGeometry x="220" y="100" width="360" height="30" as="geometry" />
        </mxCell>
        <mxCell id="Pg6jRk8zrWQnkmjUrmGD-12" value="&lt;b style=&quot;font-size: 16px;&quot;&gt;Communication Layer (Encrypted Model Updates)&lt;/b&gt;" style="rounded=1;whiteSpace=wrap;html=1;strokeWidth=2;fontSize=16;" vertex="1" parent="1">
          <mxGeometry x="40" y="480" width="720" height="40" as="geometry" />
        </mxCell>
        <mxCell id="Pg6jRk8zrWQnkmjUrmGD-17" style="edgeStyle=orthogonalEdgeStyle;rounded=0;orthogonalLoop=1;jettySize=auto;html=1;exitX=0.5;exitY=1;exitDx=0;exitDy=0;strokeWidth=2;fontSize=16;" edge="1" parent="1" source="Pg6jRk8zrWQnkmjUrmGD-9">
          <mxGeometry relative="1" as="geometry">
            <mxPoint x="639" y="480" as="targetPoint" />
          </mxGeometry>
        </mxCell>
        <mxCell id="Pg6jRk8zrWQnkmjUrmGD-20" style="edgeStyle=orthogonalEdgeStyle;rounded=0;orthogonalLoop=1;jettySize=auto;html=1;exitX=0.5;exitY=1;exitDx=0;exitDy=0;entryX=0.167;entryY=0.05;entryDx=0;entryDy=0;entryPerimeter=0;strokeWidth=2;fontSize=16;" edge="1" parent="1" source="Pg6jRk8zrWQnkmjUrmGD-7" target="Pg6jRk8zrWQnkmjUrmGD-12">
          <mxGeometry relative="1" as="geometry" />
        </mxCell>
        <mxCell id="Pg6jRk8zrWQnkmjUrmGD-22" value="&lt;b style=&quot;font-size: 16px;&quot;&gt;Aggregation (e.g., Federated Averaging)&lt;/b&gt;" style="rounded=1;whiteSpace=wrap;html=1;strokeWidth=2;fontSize=16;" vertex="1" parent="1">
          <mxGeometry x="80" y="640" width="640" height="40" as="geometry" />
        </mxCell>
        <mxCell id="Pg6jRk8zrWQnkmjUrmGD-23" value="&lt;b style=&quot;font-size: 16px;&quot;&gt;Global Model Update&lt;/b&gt;" style="rounded=1;whiteSpace=wrap;html=1;strokeWidth=2;fontSize=16;" vertex="1" parent="1">
          <mxGeometry x="80" y="720" width="640" height="40" as="geometry" />
        </mxCell>
        <mxCell id="Pg6jRk8zrWQnkmjUrmGD-25" value="&lt;b style=&quot;font-size: 16px;&quot;&gt;Federated Server (Central Server)&lt;/b&gt;" style="text;html=1;align=center;verticalAlign=middle;resizable=0;points=[];autosize=1;strokeColor=none;fillColor=none;strokeWidth=2;fontSize=16;" vertex="1" parent="1">
          <mxGeometry x="260" y="580" width="280" height="30" as="geometry" />
        </mxCell>
        <mxCell id="Pg6jRk8zrWQnkmjUrmGD-26" value="" style="endArrow=classic;html=1;rounded=0;exitX=0.167;exitY=1;exitDx=0;exitDy=0;exitPerimeter=0;entryX=0.167;entryY=-0.008;entryDx=0;entryDy=0;entryPerimeter=0;strokeWidth=2;fontSize=16;" edge="1" parent="1" source="Pg6jRk8zrWQnkmjUrmGD-12" target="Pg6jRk8zrWQnkmjUrmGD-24">
          <mxGeometry width="50" height="50" relative="1" as="geometry">
            <mxPoint x="380" y="700" as="sourcePoint" />
            <mxPoint x="430" y="650" as="targetPoint" />
          </mxGeometry>
        </mxCell>
        <mxCell id="Pg6jRk8zrWQnkmjUrmGD-27" value="" style="endArrow=classic;html=1;rounded=0;exitX=0.5;exitY=1;exitDx=0;exitDy=0;entryX=0.5;entryY=0;entryDx=0;entryDy=0;strokeWidth=2;fontSize=16;" edge="1" parent="1" source="Pg6jRk8zrWQnkmjUrmGD-12" target="Pg6jRk8zrWQnkmjUrmGD-24">
          <mxGeometry width="50" height="50" relative="1" as="geometry">
            <mxPoint x="170" y="530" as="sourcePoint" />
            <mxPoint x="170" y="568" as="targetPoint" />
          </mxGeometry>
        </mxCell>
        <mxCell id="Pg6jRk8zrWQnkmjUrmGD-28" value="" style="endArrow=classic;html=1;rounded=0;exitX=0.835;exitY=1;exitDx=0;exitDy=0;exitPerimeter=0;entryX=0.836;entryY=0.004;entryDx=0;entryDy=0;entryPerimeter=0;strokeWidth=2;fontSize=16;" edge="1" parent="1">
          <mxGeometry width="50" height="50" relative="1" as="geometry">
            <mxPoint x="640.1999999999998" y="520" as="sourcePoint" />
            <mxPoint x="640.9200000000001" y="560.96" as="targetPoint" />
          </mxGeometry>
        </mxCell>
        <mxCell id="Pg6jRk8zrWQnkmjUrmGD-31" value="" style="endArrow=classic;html=1;rounded=0;exitX=0.167;exitY=1;exitDx=0;exitDy=0;exitPerimeter=0;entryX=0.167;entryY=-0.008;entryDx=0;entryDy=0;entryPerimeter=0;strokeWidth=2;fontSize=16;" edge="1" parent="1">
          <mxGeometry width="50" height="50" relative="1" as="geometry">
            <mxPoint x="161" y="800" as="sourcePoint" />
            <mxPoint x="161" y="838" as="targetPoint" />
          </mxGeometry>
        </mxCell>
        <mxCell id="Pg6jRk8zrWQnkmjUrmGD-32" value="" style="endArrow=classic;html=1;rounded=0;exitX=0.5;exitY=1;exitDx=0;exitDy=0;entryX=0.5;entryY=0;entryDx=0;entryDy=0;strokeWidth=2;fontSize=16;" edge="1" parent="1">
          <mxGeometry width="50" height="50" relative="1" as="geometry">
            <mxPoint x="401" y="800" as="sourcePoint" />
            <mxPoint x="401" y="840" as="targetPoint" />
          </mxGeometry>
        </mxCell>
        <mxCell id="Pg6jRk8zrWQnkmjUrmGD-33" value="" style="endArrow=classic;html=1;rounded=0;exitX=0.835;exitY=1;exitDx=0;exitDy=0;exitPerimeter=0;entryX=0.836;entryY=0.004;entryDx=0;entryDy=0;entryPerimeter=0;strokeWidth=2;fontSize=16;" edge="1" parent="1">
          <mxGeometry width="50" height="50" relative="1" as="geometry">
            <mxPoint x="641.1999999999998" y="800" as="sourcePoint" />
            <mxPoint x="641.9200000000001" y="840.96" as="targetPoint" />
          </mxGeometry>
        </mxCell>
        <mxCell id="Pg6jRk8zrWQnkmjUrmGD-34" value="&lt;div&gt;&lt;b&gt;Local Devices (Hospitals, Clinics, Labs, etc.)&amp;nbsp;&lt;/b&gt;&lt;/div&gt;&lt;div&gt;&lt;b&gt;Receive Global Model for Further Training &amp;amp; Predictions&lt;/b&gt;&lt;/div&gt;" style="rounded=1;whiteSpace=wrap;html=1;strokeWidth=2;fontSize=16;" vertex="1" parent="1">
          <mxGeometry x="40" y="840" width="720" height="80" as="geometry" />
        </mxCell>
        <mxCell id="Pg6jRk8zrWQnkmjUrmGD-35" value="&lt;b style=&quot;font-size: 20px;&quot;&gt;Federated Learning &lt;span class=&quot;hljs-keyword&quot;&gt;System&lt;/span&gt;&lt;/b&gt;" style="text;html=1;align=center;verticalAlign=middle;resizable=0;points=[];autosize=1;strokeColor=none;fillColor=none;" vertex="1" parent="1">
          <mxGeometry x="270" y="20" width="290" height="40" as="geometry" />
        </mxCell>
      </root>
    </mxGraphModel>
  </diagram>
</mxfile>
